<svg width="16" height="16" viewBox="0 0 16 16" fill="none" xmlns="http://www.w3.org/2000/svg">
<path d="M10.0648 7.47461C9.38745 7.47461 9.2937 8.14961 9.2937 8.14961H10.7328C10.7328 8.14961 10.7421 7.47461 10.0648 7.47461Z" fill="#070707"/>
<path d="M6.7999 8.15039H5.5249V9.32227H6.73662C6.91943 9.31758 7.26162 9.26602 7.26162 8.75274C7.26162 8.14336 6.7999 8.15039 6.7999 8.15039Z" fill="#070707"/>
<path d="M8 2.75C5.10078 2.75 2.75 5.10078 2.75 8C2.75 10.8992 5.10078 13.25 8 13.25C10.8992 13.25 13.25 10.8992 13.25 8C13.25 5.10078 10.8992 2.75 8 2.75ZM9.10625 5.975H10.9133V6.51406H9.10625V5.975ZM8.19219 8.80625C8.19219 10.1422 6.8 10.1 6.8 10.1H4.52187V5.71719H6.8C7.49375 5.71719 8.03984 6.09922 8.03984 6.88437C8.03984 7.66953 7.37187 7.71875 7.37187 7.71875C8.25312 7.71875 8.19219 8.80625 8.19219 8.80625ZM11.5719 8.73359H9.30078C9.30078 9.54687 10.0719 9.49531 10.0719 9.49531C10.8008 9.49531 10.775 9.02422 10.775 9.02422H11.5461C11.5461 10.2758 10.0461 10.1891 10.0461 10.1891C8.24844 10.1891 8.36328 8.51328 8.36328 8.51328C8.36328 8.51328 8.36094 6.83047 10.0461 6.83047C11.8203 6.83281 11.5719 8.73359 11.5719 8.73359V8.73359Z" fill="#070707"/>
<path d="M7.10928 6.95273C7.10928 6.49805 6.7999 6.49805 6.7999 6.49805H5.5249V7.47539H6.72021C6.92646 7.47539 7.10928 7.40742 7.10928 6.95273Z" fill="#070707"/>
</svg>
