<svg width="16" height="16" viewBox="0 0 16 16" fill="none" xmlns="http://www.w3.org/2000/svg">
<path d="M6.36957 4.27907C6.99889 4.00309 7.688 3.89148 8.37226 3.95472C9.05653 4.01795 9.71351 4.25396 10.2816 4.64061C9.81187 5.2776 9.22048 5.81511 8.54164 6.22203C7.97113 5.42089 7.22909 4.75711 6.36957 4.27907V4.27907ZM7.98345 6.51694C7.39467 5.71332 6.61431 5.06965 5.71336 4.64448C4.92637 5.18138 4.35222 5.9769 4.09059 6.89296C4.55191 7.00568 5.0251 7.06257 5.49999 7.06243C6.35761 7.06325 7.20511 6.8771 7.98345 6.51694V6.51694ZM12.0546 7.75357C11.9916 6.71489 11.5316 5.7402 10.7698 5.03135C10.2572 5.72084 9.61506 6.30384 8.87943 6.74779C9.09361 7.1188 9.27079 7.50997 9.40841 7.91566C10.2703 7.68232 11.1707 7.62717 12.0546 7.75357L12.0546 7.75357ZM9.58076 8.51651C9.69648 9.00903 9.75481 9.5133 9.75456 10.0192C9.75416 10.6103 9.67423 11.1986 9.5169 11.7684C10.2073 11.4892 10.8079 11.026 11.2534 10.4292C11.6989 9.8324 11.9722 9.12486 12.0435 8.38355C11.2223 8.25545 10.3834 8.30074 9.58076 8.51651H9.58076ZM8.81355 8.10813C8.68765 7.73879 8.52551 7.38282 8.3295 7.04541C7.44649 7.46914 6.4794 7.68858 5.49999 7.68743C4.98375 7.6876 4.46929 7.62679 3.96732 7.50627C3.88558 8.17407 3.97116 8.85172 4.21634 9.47824C4.46153 10.1048 4.85863 10.6605 5.37193 11.0954C6.12806 9.72263 7.34804 8.66369 8.81355 8.10813ZM5.88216 11.4656C6.75351 11.9988 7.79383 12.1839 8.79562 11.984C9.01635 11.3525 9.12924 10.6883 9.12956 10.0192C9.12956 9.57946 9.08066 9.14105 8.98374 8.71209C7.65414 9.22996 6.55389 10.2067 5.88216 11.4656V11.4656Z" fill="#070707"/>
</svg>
