<svg width="16" height="16" viewBox="0 0 16 16" fill="none" xmlns="http://www.w3.org/2000/svg">
<path d="M9.5625 6.4375C9.9769 6.4375 10.3743 6.27288 10.6674 5.97985C10.9604 5.68683 11.125 5.2894 11.125 4.875C11.125 4.4606 10.9604 4.06317 10.6674 3.77015C10.3743 3.47712 9.9769 3.3125 9.5625 3.3125H6.4375C6.0231 3.3125 5.62567 3.47712 5.33265 3.77015C5.03962 4.06317 4.875 4.4606 4.875 4.875C4.875 5.2894 5.03962 5.68683 5.33265 5.97985C5.62567 6.27288 6.0231 6.4375 6.4375 6.4375C6.0231 6.4375 5.62567 6.60212 5.33265 6.89515C5.03962 7.18817 4.875 7.5856 4.875 8C4.875 8.4144 5.03962 8.81183 5.33265 9.10485C5.62567 9.39788 6.0231 9.5625 6.4375 9.5625C6.12847 9.5625 5.82637 9.65414 5.56942 9.82583C5.31247 9.99752 5.1122 10.2415 4.99394 10.5271C4.87568 10.8126 4.84473 11.1267 4.90502 11.4298C4.96531 11.7329 5.11413 12.0113 5.33265 12.2299C5.55117 12.4484 5.82958 12.5972 6.13267 12.6575C6.43577 12.7178 6.74993 12.6868 7.03544 12.5686C7.32095 12.4503 7.56498 12.25 7.73667 11.9931C7.90836 11.7361 8 11.434 8 11.125V6.4375H9.5625Z" fill="#070707"/>
<path d="M9.5625 9.5625C10.4254 9.5625 11.125 8.86294 11.125 8C11.125 7.13706 10.4254 6.4375 9.5625 6.4375C8.69956 6.4375 8 7.13706 8 8C8 8.86294 8.69956 9.5625 9.5625 9.5625Z" fill="#070707"/>
</svg>
