<svg width="16" height="16" viewBox="0 0 16 16" fill="none" xmlns="http://www.w3.org/2000/svg">
<path fill-rule="evenodd" clip-rule="evenodd" d="M7.9981 2.7998C6.69826 2.80048 5.44104 3.26086 4.45124 4.09862C3.46145 4.93638 2.80362 6.0969 2.59539 7.37266C2.38717 8.64842 2.64211 9.95623 3.31464 11.0622C3.98718 12.1682 5.03344 13.0003 6.26636 13.4097C6.53836 13.4602 6.64081 13.2916 6.64081 13.1483C6.64081 13.0049 6.63537 12.5893 6.63356 12.135C5.11035 12.464 4.78849 11.4922 4.78849 11.4922C4.54006 10.8611 4.18102 10.6953 4.18102 10.6953C3.68416 10.3581 4.21819 10.3644 4.21819 10.3644C4.76854 10.4032 5.05777 10.926 5.05777 10.926C5.54556 11.7581 6.33889 11.5174 6.65078 11.3768C6.69975 11.0243 6.84209 10.7845 6.99895 10.6484C5.7822 10.5113 4.50379 10.0444 4.50379 7.95826C4.49625 7.41724 4.69816 6.89405 5.06774 6.49691C5.01153 6.35988 4.82384 5.80635 5.12123 5.05449C5.12123 5.05449 5.58092 4.90845 6.62722 5.61253C7.52466 5.3685 8.47154 5.3685 9.36899 5.61253C10.4144 4.90845 10.8731 5.05449 10.8731 5.05449C11.1714 5.80455 10.9838 6.35808 10.9276 6.49691C11.2983 6.89411 11.5006 7.41822 11.4924 7.96007C11.4924 10.0507 10.2113 10.5113 8.99272 10.6457C9.18856 10.8152 9.36355 11.146 9.36355 11.6545C9.36355 12.3829 9.3572 12.9689 9.3572 13.1483C9.3572 13.2934 9.45602 13.4629 9.73346 13.4097C10.9665 13.0003 12.0129 12.168 12.6854 11.0619C13.3579 9.95565 13.6127 8.64765 13.4043 7.37177C13.1958 6.0959 12.5377 4.93537 11.5475 4.09775C10.5574 3.26013 9.29991 2.80005 7.99991 2.7998H7.9981Z" fill="#070707"/>
<path d="M4.59624 10.617C4.58445 10.6441 4.54093 10.6522 4.50557 10.6332C4.47021 10.6143 4.44392 10.5791 4.45661 10.5512C4.46931 10.5232 4.51192 10.516 4.54728 10.535C4.58264 10.5539 4.60984 10.59 4.59624 10.617Z" fill="#070707"/>
<path d="M4.81819 10.8631C4.79941 10.8725 4.77793 10.8751 4.75742 10.8705C4.73691 10.8659 4.71865 10.8544 4.70576 10.8378C4.6704 10.8 4.66315 10.7477 4.69035 10.7242C4.71755 10.7008 4.76651 10.7116 4.80187 10.7495C4.83723 10.7874 4.84539 10.8396 4.81819 10.8631Z" fill="#070707"/>
<path d="M5.03418 11.1758C5.00064 11.1992 4.94351 11.1758 4.91178 11.1289C4.90301 11.1205 4.89603 11.1104 4.89126 11.0992C4.88649 11.0881 4.88403 11.0761 4.88403 11.064C4.88403 11.0518 4.88649 11.0399 4.89126 11.0287C4.89603 11.0176 4.90301 11.0075 4.91178 10.9991C4.94533 10.9765 5.00245 10.9991 5.03418 11.045C5.06592 11.091 5.06682 11.1523 5.03418 11.1758V11.1758Z" fill="#070707"/>
<path d="M5.32697 11.4788C5.29705 11.5122 5.2363 11.5032 5.18643 11.4581C5.13657 11.413 5.12478 11.3517 5.1547 11.3192C5.18462 11.2868 5.24536 11.2958 5.29704 11.34C5.34872 11.3842 5.3587 11.4464 5.32697 11.4788V11.4788Z" fill="#070707"/>
<path d="M5.73766 11.6556C5.72406 11.698 5.66241 11.7169 5.60075 11.6989C5.5391 11.6809 5.4983 11.6304 5.51009 11.5871C5.52187 11.5438 5.58443 11.524 5.64699 11.5438C5.70955 11.5637 5.74945 11.6115 5.73766 11.6556Z" fill="#070707"/>
<path d="M6.18551 11.6858C6.18551 11.73 6.13474 11.7678 6.06946 11.7687C6.00418 11.7696 5.95068 11.7336 5.95068 11.6894C5.95068 11.6452 6.00145 11.6074 6.06673 11.6065C6.13202 11.6056 6.18551 11.6407 6.18551 11.6858Z" fill="#070707"/>
<path d="M6.60259 11.6169C6.61075 11.6611 6.56541 11.7071 6.50013 11.7179C6.43485 11.7287 6.37773 11.7026 6.36957 11.6593C6.36141 11.616 6.40856 11.5691 6.47203 11.5574C6.53549 11.5457 6.59443 11.5727 6.60259 11.6169Z" fill="#070707"/>
</svg>
