<svg width="16" height="16" viewBox="0 0 16 16" fill="none" xmlns="http://www.w3.org/2000/svg">
<path d="M11.8356 3.5H4.16438C3.98817 3.5 3.81919 3.57 3.69459 3.69459C3.57 3.81919 3.5 3.98817 3.5 4.16438V11.8356C3.5 12.0118 3.57 12.1808 3.69459 12.3054C3.81919 12.43 3.98817 12.5 4.16438 12.5H11.8356C12.0118 12.5 12.1808 12.43 12.3054 12.3054C12.43 12.1808 12.5 12.0118 12.5 11.8356V4.16438C12.5 3.98817 12.43 3.81919 12.3054 3.69459C12.1808 3.57 12.0118 3.5 11.8356 3.5ZM6.1825 11.1669H4.82938V6.86875H6.1825V11.1669ZM5.505 6.27313C5.35151 6.27226 5.20172 6.22595 5.07453 6.14003C4.94733 6.05412 4.84844 5.93245 4.79033 5.79038C4.73222 5.64832 4.71749 5.49222 4.74801 5.3418C4.77853 5.19137 4.85293 5.05335 4.96181 4.94517C5.07069 4.83698 5.20918 4.76348 5.3598 4.73392C5.51042 4.70437 5.66642 4.7201 5.80811 4.77912C5.9498 4.83814 6.07083 4.93781 6.15592 5.06555C6.24102 5.1933 6.28637 5.34338 6.28625 5.49688C6.2877 5.59964 6.26844 5.70164 6.22963 5.7968C6.19082 5.89196 6.13324 5.97834 6.06034 6.05078C5.98743 6.12321 5.90069 6.18023 5.80528 6.21843C5.70987 6.25663 5.60775 6.27523 5.505 6.27313ZM11.17 11.1706H9.8175V8.8225C9.8175 8.13 9.52313 7.91625 9.14313 7.91625C8.74188 7.91625 8.34812 8.21875 8.34812 8.84V11.1706H6.995V6.87188H8.29625V7.4675H8.31375C8.44438 7.20313 8.90188 6.75125 9.6 6.75125C10.355 6.75125 11.1706 7.19938 11.1706 8.51188L11.17 11.1706Z" fill="#070707"/>
</svg>
