<svg width="163" height="15" viewBox="0 0 163 15" fill="none" xmlns="http://www.w3.org/2000/svg">
<path d="M21.5343 1.32422C22.3815 1.32422 22.5227 1.85404 22.5227 2.11894C22.5227 2.38385 22.3815 2.91365 21.5343 2.91365H17.7923V13.6423C17.7923 14.5033 17.1569 14.7019 16.8038 14.7019C16.4508 14.7019 15.8154 14.5033 15.8154 13.6423V2.97988H12.0734C11.2262 2.97988 11.085 2.45006 11.085 2.18515C11.085 1.92025 11.2262 1.39045 12.0734 1.39045L21.5343 1.32422Z" fill="#070707"/>
<path d="M23.5111 10.3973C23.5817 11.9205 24.9232 13.1126 26.5471 13.1126C27.6767 13.1126 28.3827 12.649 28.9476 12.1854C29.23 11.9867 29.3712 11.9205 29.583 11.9205C30.0066 11.9205 30.3596 12.1854 30.3596 12.649C30.3596 12.7814 30.289 13.0463 30.0772 13.3112C29.1594 14.1722 27.9591 14.6358 26.4765 14.6358C23.5817 14.6358 21.4636 12.7814 21.4636 9.99992C21.4636 7.21842 23.5817 5.29785 26.3352 5.29785C28.7358 5.29785 30.4302 6.55616 30.8539 9.00653C30.9245 9.27143 30.9245 9.40388 30.9245 9.60256C30.9245 10.1986 30.5715 10.5297 29.936 10.5297H23.5111V10.3973ZM29.1594 9.13899C29.0888 7.74824 28.2415 6.62238 26.4765 6.62238C24.8526 6.62238 23.6523 7.74824 23.5111 9.13899H29.1594Z" fill="#070707"/>
<path d="M39.5381 13.0463C38.8321 13.9735 37.7025 14.5695 36.2904 14.5695C34.8077 14.5695 32.8308 13.9073 32.8308 11.8542C32.8308 9.2052 36.2198 8.87407 39.3969 8.87407V8.60917C39.3969 7.28464 38.4791 6.68861 37.067 6.68861C36.2904 6.68861 35.5843 6.95351 34.8077 7.35087C34.5959 7.48332 34.3841 7.54954 34.2429 7.54954C33.8193 7.54954 33.5368 7.21841 33.5368 6.88728C33.5368 6.62237 33.6075 6.42369 33.9605 6.22502C34.8077 5.69521 35.9374 5.29785 37.2082 5.29785C39.9618 5.29785 41.162 6.82107 41.162 8.80786V13.5761C41.162 14.3709 40.5972 14.5033 40.3148 14.5033C40.0324 14.5033 39.4675 14.3709 39.4675 13.5761V13.0463H39.5381ZM38.9733 10.1324C37.1376 10.1324 34.7371 10.3311 34.7371 11.788C34.7371 12.8477 35.7256 13.1788 36.6434 13.1788C38.4085 13.1788 39.3969 12.0529 39.3969 10.596V10.1324H38.9733Z" fill="#070707"/>
<path d="M51.2581 12.2514C51.7523 12.2514 52.0348 12.5826 52.0348 12.9799C52.0348 13.2448 51.9642 13.4435 51.6111 13.7747C50.9051 14.3707 49.8461 14.6356 48.787 14.6356C45.8923 14.6356 43.7742 12.7812 43.7742 9.93352C43.7742 7.15201 45.8923 5.23145 48.787 5.23145C49.7755 5.23145 50.8345 5.49636 51.5405 6.02617C51.8935 6.29107 52.0348 6.55599 52.0348 6.82089C52.0348 7.28448 51.6817 7.6156 51.1875 7.6156C50.9757 7.6156 50.8345 7.54937 50.4815 7.28446C50.1285 7.01956 49.5636 6.75466 48.8576 6.75466C46.8807 6.75466 45.7511 8.27786 45.7511 9.93352C45.7511 11.5892 46.8807 13.1124 48.787 13.1124C49.5636 13.1124 50.1285 12.9137 50.6227 12.5163C50.9051 12.3177 51.0463 12.2514 51.2581 12.2514Z" fill="#070707"/>
<path d="M60.7897 9.40414C60.7897 7.94716 60.3661 6.68886 58.6716 6.68886C57.189 6.68886 56.1299 7.88093 56.1299 9.60281V13.444C56.1299 14.2387 55.4945 14.4373 55.2121 14.4373C54.9297 14.4373 54.2236 14.3049 54.2236 13.5102V0.993394C54.2236 0.198679 54.8591 0 55.1415 0C55.4239 0 56.0593 0.132453 56.0593 0.993394V6.82132H56.1299C56.5535 5.96038 57.7538 5.23187 59.0953 5.23187C61.4958 5.23187 62.6254 6.88755 62.6254 8.80811V13.5102C62.6254 14.3049 61.99 14.5036 61.7076 14.5036C61.4252 14.5036 60.7897 14.3711 60.7897 13.5102V9.40414Z" fill="#070707"/>
<path d="M79.5701 14.5033C79.2171 14.5033 78.5817 14.3709 78.5817 13.4437V4.8343H78.5111L74.4161 13.6424C74.063 14.3709 73.5688 14.5033 73.2158 14.5033C72.8628 14.5033 72.3686 14.3709 72.0155 13.6424L67.9205 4.90051H67.8499V13.5099C67.8499 14.3709 67.2145 14.5033 66.8615 14.5033C66.5085 14.5033 65.873 14.3709 65.873 13.5099V2.25146C65.873 1.19184 66.7203 0.993164 67.1439 0.993164C67.5675 0.993164 68.0617 1.12562 68.4854 2.05279L73.1452 12.1192H73.2158L77.8756 2.05279C78.2992 1.12562 78.8641 0.993164 79.2171 0.993164C79.6407 0.993164 80.4173 1.19184 80.4173 2.25146V13.5099C80.4879 14.3046 79.8525 14.5033 79.5701 14.5033Z" fill="#070707"/>
<path d="M85.1478 10.3973C85.2184 11.9205 86.5599 13.1126 88.1838 13.1126C89.3134 13.1126 90.0195 12.649 90.5843 12.1854C90.8667 11.9867 91.0079 11.9205 91.2197 11.9205C91.6434 11.9205 91.9964 12.1854 91.9964 12.649C91.9964 12.7814 91.9258 13.0463 91.714 13.3112C90.7961 14.1722 89.5959 14.6358 88.1132 14.6358C85.2184 14.6358 83.1003 12.7814 83.1003 9.99992C83.1003 7.21842 85.2184 5.29785 87.972 5.29785C90.3725 5.29785 92.067 6.55616 92.4906 9.00653C92.5612 9.27143 92.5612 9.40388 92.5612 9.60256C92.5612 10.1986 92.2082 10.5297 91.5727 10.5297H85.1478V10.3973ZM90.7255 9.13899C90.6549 7.74824 89.8077 6.62238 88.0426 6.62238C86.4187 6.62238 85.2184 7.74824 85.0772 9.13899H90.7255Z" fill="#070707"/>
<path d="M99.0568 13.0466C100.398 13.0466 101.881 12.3843 101.881 10.7949C101.881 9.20549 100.328 8.74189 98.5626 8.21208C96.7975 7.68227 94.8912 6.95379 94.8912 4.50342C94.8912 1.85437 97.4329 0.728516 99.6922 0.728516C101.034 0.728516 102.234 1.12587 103.011 1.72191C103.364 1.98682 103.434 2.25172 103.434 2.4504C103.434 2.91399 103.081 3.24511 102.516 3.24511C102.305 3.24511 102.163 3.24511 101.81 2.98021C101.104 2.45039 100.398 2.25171 99.6216 2.25171C98.3508 2.25171 96.8681 2.91398 96.8681 4.37096C96.8681 5.82794 98.139 6.2253 99.7628 6.68888C101.669 7.21869 103.928 7.94717 103.928 10.53C103.928 13.2453 101.528 14.5698 99.0568 14.5698C97.5741 14.5698 96.1621 14.1725 95.1736 13.3115C94.8206 13.0466 94.75 12.7155 94.75 12.5168C94.75 12.0532 95.103 11.6559 95.6678 11.6559C95.8797 11.6559 96.0915 11.7221 96.3739 11.987C97.2211 12.7155 98.139 13.0466 99.0568 13.0466Z" fill="#070707"/>
<path d="M108.588 9.73527L108.518 13.5102C108.518 14.3049 107.882 14.5036 107.6 14.5036C107.318 14.5036 106.682 14.3711 106.682 13.5102V0.993394C106.682 0.198679 107.318 0 107.6 0C107.953 0 108.518 0.132453 108.518 0.993394V9.27168H108.588L112.825 5.563C113.107 5.36433 113.319 5.23187 113.531 5.23187C114.025 5.23187 114.449 5.56301 114.449 6.0266C114.449 6.22528 114.378 6.49019 114.025 6.75509L110.777 9.40414L114.519 12.7817C114.872 13.1128 114.872 13.3115 114.872 13.5102C114.872 13.9737 114.449 14.3711 113.954 14.3711C113.672 14.3711 113.46 14.3049 113.107 13.9738L108.588 9.73527Z" fill="#070707"/>
<path d="M118.049 3.37767C117.343 3.37767 116.778 2.84785 116.778 2.25181C116.778 1.58955 117.343 1.12598 118.049 1.12598C118.755 1.12598 119.32 1.58955 119.32 2.25181C119.32 2.91407 118.755 3.37767 118.049 3.37767ZM119.037 13.5103C119.037 14.305 118.402 14.5037 118.12 14.5037C117.767 14.5037 117.202 14.3712 117.202 13.5103V6.29162C117.202 5.4969 117.837 5.29822 118.12 5.29822C118.473 5.29822 119.037 5.43068 119.037 6.29162V13.5103Z" fill="#070707"/>
<path d="M122.285 0.993394C122.285 0.198679 122.921 0 123.203 0C123.556 0 124.121 0.132453 124.121 0.993394V13.5102C124.121 14.3049 123.485 14.5036 123.203 14.5036C122.85 14.5036 122.285 14.3711 122.285 13.5102V0.993394Z" fill="#070707"/>
<path d="M127.51 0.993394C127.51 0.198679 128.145 0 128.428 0C128.781 0 129.345 0.132453 129.345 0.993394V13.5102C129.345 14.3049 128.71 14.5036 128.428 14.5036C128.075 14.5036 127.51 14.3711 127.51 13.5102V0.993394Z" fill="#070707"/>
<path d="M135.559 6.62238C134.711 6.62238 133.794 6.95352 133.794 7.81446C133.794 8.54295 134.5 8.87408 135.912 9.13899C137.677 9.53635 139.089 10.1986 139.089 11.788C139.089 13.9073 137.253 14.6358 135.347 14.6358C134.217 14.6358 133.017 14.3046 132.24 13.6424C131.887 13.3775 131.817 13.1126 131.817 12.9139C131.817 12.4503 132.17 12.1192 132.664 12.1192C132.876 12.1192 133.088 12.1854 133.37 12.3841C133.935 12.8477 134.641 13.1788 135.417 13.1788C136.335 13.1788 137.324 12.8476 137.324 11.9205C137.324 11.1258 136.476 10.7946 134.853 10.4635C133.582 10.1986 132.099 9.66879 132.099 8.01313C132.099 6.09257 133.864 5.29785 135.7 5.29785C136.688 5.29785 137.747 5.56277 138.453 6.15881C138.806 6.42371 138.877 6.6886 138.877 6.88728C138.877 7.28464 138.524 7.682 138.03 7.682C137.818 7.682 137.677 7.61578 137.465 7.4171C136.829 6.82106 136.194 6.62238 135.559 6.62238Z" fill="#070707"/>
<path d="M155.398 15.1654C155.186 15.1654 154.904 15.0992 154.763 14.9005C154.41 14.5694 154.41 14.0396 154.763 13.7085L159.846 8.94016L154.763 4.17188C154.41 3.84075 154.41 3.31093 154.763 2.97979C155.116 2.64866 155.681 2.64866 156.034 2.97979L161.753 8.34413C161.894 8.47658 162.035 8.74148 162.035 8.94016C162.035 9.13884 161.964 9.40374 161.753 9.53619L156.034 14.9005C155.892 15.033 155.61 15.1654 155.398 15.1654Z" fill="#FFDA17"/>
<path d="M6.63671 15.1654C6.4249 15.1654 6.14249 15.0992 6.00129 14.9005L0.282409 9.53619C0.141202 9.40374 0 9.13884 0 8.94016C0 8.74148 0.070599 8.47658 0.282409 8.34413L6.00129 2.97979C6.3543 2.64866 6.91913 2.64866 7.27215 2.97979C7.62517 3.31093 7.62517 3.84075 7.27215 4.17188L2.1887 8.94016L7.27215 13.7085C7.62517 14.0396 7.62517 14.5694 7.27215 14.9005C7.13094 15.033 6.84852 15.1654 6.63671 15.1654Z" fill="#FFDA17"/>
<path d="M143.043 15.1657C142.831 15.1657 142.69 15.0995 142.549 15.0332C142.125 14.7683 142.055 14.2385 142.337 13.8412L150.386 3.11251C150.668 2.71515 151.233 2.64892 151.657 2.91382C152.08 3.17873 152.151 3.70855 151.868 4.10591L143.82 14.8346C143.608 15.0332 143.325 15.1657 143.043 15.1657Z" fill="#FFDA17"/>
</svg>
