<svg width="16" height="16" viewBox="0 0 16 16" fill="none" xmlns="http://www.w3.org/2000/svg">
<path d="M12.1182 9.13739L10.8457 8.99209C10.54 8.95702 10.2394 9.06223 10.024 9.27767L9.10213 10.1995C7.68427 9.47807 6.52193 8.32074 5.80047 6.89787L6.72734 5.971C6.94278 5.75556 7.04799 5.45495 7.01292 5.14934L6.86762 3.88679C6.8075 3.38077 6.38164 3 5.87061 3H5.00386C4.43772 3 3.96677 3.47095 4.00184 4.03709C4.26738 8.31573 7.68928 11.7326 11.9629 11.9982C12.529 12.0332 13 11.5623 13 10.9961V10.1294C13.005 9.62337 12.6242 9.19751 12.1182 9.13739Z" fill="#070707" stroke="#070707" stroke-width="0.4"/>
</svg>
