<svg width="16" height="16" viewBox="0 0 16 16" fill="none" xmlns="http://www.w3.org/2000/svg">
<path fill-rule="evenodd" clip-rule="evenodd" d="M3.62142 7.91596C5.95359 6.89987 7.50873 6.23001 8.28685 5.90636C10.5085 4.98228 10.9702 4.82176 11.2711 4.81646C11.3373 4.8153 11.4852 4.8317 11.5811 4.90947C11.662 4.97515 11.6843 5.06386 11.6949 5.12612C11.7056 5.18839 11.7189 5.33023 11.7083 5.44106C11.5879 6.70604 11.067 9.77584 10.8019 11.1926C10.6898 11.7921 10.469 11.9932 10.2552 12.0128C9.79065 12.0556 9.43787 11.7058 8.98791 11.4109C8.2838 10.9493 7.88603 10.662 7.20257 10.2116C6.41272 9.6911 6.92475 9.40503 7.37488 8.9375C7.49269 8.81514 9.53961 6.95331 9.57923 6.78441C9.58419 6.76329 9.58879 6.68455 9.54201 6.64297C9.49523 6.60139 9.42619 6.61561 9.37637 6.62692C9.30575 6.64295 8.18094 7.38641 6.00192 8.8573C5.68265 9.07654 5.39346 9.18336 5.13436 9.17776C4.84871 9.17159 4.29925 9.01626 3.89079 8.88348C3.38979 8.72062 2.9916 8.63452 3.02627 8.35794C3.04433 8.21388 3.24272 8.06655 3.62142 7.91596Z" fill="#070707"/>
</svg>
