<svg width="16" height="16" viewBox="0 0 16 16" fill="none" xmlns="http://www.w3.org/2000/svg">
<path fill-rule="evenodd" clip-rule="evenodd" d="M7.80291 3.96474C9.91157 3.97394 10.9222 4.60893 11.1563 4.82165C11.9343 5.48775 12.3306 7.08167 12.0408 9.41677C11.7884 11.4559 10.4204 11.7749 9.92631 11.8901C9.8715 11.9028 9.82744 11.9131 9.79685 11.923C9.66691 11.9654 8.45864 12.2653 6.93997 12.1661C6.93997 12.1661 5.80813 13.5316 5.45459 13.8866C5.3994 13.9417 5.33452 13.9641 5.2912 13.9535C5.231 13.9386 5.21427 13.8666 5.21427 13.7612C5.21528 13.6105 5.22397 11.8962 5.22397 11.8962C3.08643 11.3024 3.13607 9.12436 3.16424 7.88804C3.16521 7.84554 3.16615 7.80416 3.16698 7.76399C3.1919 6.55521 3.41917 5.56468 4.0938 4.89858C5.30592 3.80068 7.80291 3.96474 7.80291 3.96474ZM7.57116 5.16504C7.4933 5.1645 7.42974 5.22718 7.4292 5.30504C7.42866 5.3829 7.49134 5.44645 7.5692 5.44699C8.31971 5.45222 8.93984 5.6994 9.43929 6.18628C9.9341 6.66864 10.1914 7.33348 10.1979 8.19825C10.1985 8.27611 10.2621 8.33875 10.34 8.33815C10.4179 8.33756 10.4805 8.27396 10.4799 8.19611C10.4729 7.27324 10.196 6.53019 9.63611 5.98439C9.08087 5.44311 8.38931 5.17074 7.57116 5.16504ZM7.67799 6.0262C7.68368 5.94855 7.75124 5.89021 7.82889 5.89589C8.42092 5.93922 8.89744 6.1415 9.24454 6.5204L9.24459 6.52045C9.58793 6.89561 9.75111 7.36232 9.73926 7.90973C9.73758 7.98758 9.67311 8.04931 9.59526 8.04763C9.51742 8.04595 9.45568 7.98148 9.45737 7.90363C9.46782 7.42088 9.32585 7.02688 9.03659 6.71081C8.74821 6.39604 8.34509 6.21638 7.80831 6.1771C7.73065 6.17141 7.67231 6.10386 7.67799 6.0262ZM7.89167 6.78598C7.89573 6.70823 7.96205 6.64848 8.03981 6.65254C8.33072 6.66772 8.57275 6.75577 8.74513 6.934C8.91685 7.11155 9.00102 7.35958 9.0158 7.65747C9.01966 7.73523 8.95974 7.8014 8.88198 7.80526C8.80421 7.80912 8.73804 7.7492 8.73419 7.67144C8.72154 7.41645 8.65158 7.24285 8.54245 7.13002C8.43399 7.01788 8.26847 6.94681 8.02512 6.93411C7.94736 6.93006 7.88762 6.86374 7.89167 6.78598ZM8.06048 9.55333C8.06048 9.55333 8.25865 9.57006 8.36535 9.43861L8.57339 9.17689C8.67373 9.04711 8.91588 8.96433 9.15302 9.09645C9.33073 9.1978 9.50325 9.30797 9.66995 9.42657C9.79649 9.51963 10.0297 9.71174 10.1167 9.78343L10.1167 9.78343C10.1379 9.80089 10.1504 9.81121 10.1506 9.81121C10.3041 9.94082 10.3396 10.1311 10.235 10.3318C10.235 10.3326 10.2347 10.3336 10.2344 10.3346C10.2343 10.3351 10.2342 10.3356 10.2342 10.336C10.1191 10.5356 9.97293 10.7155 9.80123 10.8691C9.80018 10.8697 9.79968 10.8702 9.79918 10.8707C9.79872 10.8712 9.79826 10.8717 9.79738 10.8721C9.64821 10.9968 9.50165 11.0676 9.35772 11.0847C9.33653 11.0884 9.31499 11.0898 9.2935 11.0887C9.23003 11.0893 9.16688 11.0796 9.10653 11.06L9.10185 11.0531C8.8801 10.9906 8.50984 10.834 7.89324 10.4939C7.53643 10.2993 7.19673 10.0749 6.87779 9.82308C6.71793 9.69692 6.56544 9.56168 6.42107 9.41804L6.40569 9.40265L6.3903 9.38727L6.37491 9.37188L6.3647 9.3617L6.35953 9.3565C6.21589 9.21213 6.08065 9.05964 5.95448 8.89978C5.70266 8.58087 5.47827 8.24123 5.2837 7.88449C4.94355 7.26773 4.78702 6.89781 4.72447 6.67572L4.71761 6.67104C4.69801 6.61068 4.68835 6.54753 4.68902 6.48407C4.68785 6.46258 4.68914 6.44104 4.69286 6.41985C4.71081 6.27614 4.78178 6.12947 4.90575 5.97985C4.90623 5.97897 4.90671 5.97851 4.90719 5.97806C4.90772 5.97755 4.90824 5.97705 4.90876 5.97601C5.06234 5.80431 5.24231 5.6582 5.44191 5.5432C5.44239 5.5432 5.4431 5.54297 5.44385 5.54273L5.44385 5.54273C5.44465 5.54247 5.44548 5.5422 5.44609 5.5422C5.64677 5.43768 5.83709 5.47313 5.96653 5.62582C5.96753 5.62682 6.23594 5.94908 6.35117 6.10645C6.46978 6.27331 6.57995 6.446 6.68129 6.62388C6.8134 6.86085 6.73062 7.10351 6.60085 7.20351L6.33913 7.41155C6.20701 7.51825 6.2244 7.71642 6.2244 7.71642C6.2244 7.71642 6.61205 9.18358 8.06048 9.55333Z" fill="#070707"/>
</svg>
